<!-- public/images/logo.svg -->
<svg xmlns="http://www.w3.org/2000/svg" width="512" height="128" viewBox="0 0 512 128">
  <defs>
    <linearGradient id="g" x1="0" y1="0" x2="1" y2="1">
      <stop offset="0%" stop-color="#FFD95A"/>
      <stop offset="100%" stop-color="#FF8A00"/>
    </linearGradient>
  </defs>
  <rect fill="none" width="100%" height="100%"/>
  <g transform="translate(16,16)">
    <circle cx="32" cy="48" r="28" fill="url(#g)" stroke="#FFB000" stroke-width="4"/>
    <g fill="#FFB000">
      <rect x="30" y="0" width="4" height="16" rx="2"/>
      <rect x="30" y="80" width="4" height="16" rx="2"/>
      <rect x="0" y="46" width="16" height="4" rx="2"/>
      <rect x="48" y="46" width="16" height="4" rx="2"/>
      <rect x="7" y="15" width="4" height="16" rx="2" transform="rotate(-45 9 23)"/>
      <rect x="49" y="65" width="4" height="16" rx="2" transform="rotate(-45 51 73)"/>
      <rect x="49" y="15" width="4" height="16" rx="2" transform="rotate(45 51 23)"/>
      <rect x="7" y="65" width="4" height="16" rx="2" transform="rotate(45 9 73)"/>
    </g>
    <text x="90" y="60" font-family="Inter, system-ui, -apple-system, Segoe UI, Roboto, Helvetica, Arial" font-size="48" font-weight="800" fill="#111827" letter-spacing="1">
      Solar <tspan fill="url(#g)">Earl</tspan>
    </text>
    <text x="92" y="86" font-family="Inter, system-ui, -apple-system, Segoe UI, Roboto, Helvetica, Arial" font-size="16" fill="#6B7280">
      Florida’s Friendly Solar Nerd
    </text>
  </g>
</svg>

